<svg width="14" height="14" viewBox="0 0 14 14" fill="none" xmlns="http://www.w3.org/2000/svg">
<path fill-rule="evenodd" clip-rule="evenodd" d="M11.4191 1.0323C10.9953 1.10768 10.4162 1.29932 9.57221 1.58066L3.63358 3.56021C2.98063 3.77786 2.50555 3.93632 2.15804 4.06786C1.79695 4.20455 1.63395 4.29113 1.56314 4.34776C0.812286 4.94825 0.812286 6.09016 1.56314 6.69066C1.63395 6.74728 1.79695 6.83386 2.15804 6.97055C2.50555 7.10209 2.98062 7.26055 3.63358 7.4782C3.64397 7.48167 3.65421 7.48508 3.66432 7.48845C3.89644 7.56578 4.05661 7.61914 4.20454 7.69109C4.70779 7.93588 5.11435 8.34245 5.35915 8.8457C5.4311 8.99362 5.48446 9.1538 5.56179 9.38591L5.57203 9.41666C5.78969 10.0696 5.94815 10.5447 6.07969 10.8922C6.21637 11.2533 6.30295 11.4163 6.35958 11.4871C6.96007 12.238 8.10199 12.238 8.70248 11.4871C8.75911 11.4163 8.84569 11.2533 8.98238 10.8922C9.11392 10.5447 9.27238 10.0696 9.49003 9.41666L11.4696 3.47803C11.7509 2.634 11.9426 2.05492 12.0179 1.63118C12.094 1.20382 12.019 1.10673 11.9812 1.069C11.9435 1.03126 11.8464 0.956276 11.4191 1.0323ZM11.2439 0.047757C11.7537 -0.0429293 12.2891 -0.0373917 12.6883 0.361891C13.0876 0.761173 13.0932 1.29654 13.0025 1.80633C12.9127 2.31109 12.6963 2.96022 12.4319 3.75337L12.4183 3.79426L10.4387 9.73289L10.4348 9.74465C10.2219 10.3834 10.0571 10.8776 9.91761 11.2462C9.78239 11.6035 9.64951 11.904 9.48345 12.1117C8.48263 13.3631 6.57944 13.3631 5.57862 12.1117C5.41256 11.904 5.27968 11.6035 5.14445 11.2462C5.00493 10.8776 4.84019 10.3834 4.62725 9.7446L4.62335 9.73289C4.53191 9.45855 4.49954 9.36465 4.45989 9.28312C4.31301 8.98117 4.06907 8.73723 3.76712 8.59035C3.68559 8.5507 3.59169 8.51833 3.31735 8.42689L3.30558 8.42296C2.6668 8.21004 2.1726 8.0453 1.80403 7.90579C1.44679 7.77056 1.1462 7.63768 0.938567 7.47162C-0.312856 6.4708 -0.312856 4.56761 0.938567 3.56679C1.14621 3.40073 1.44679 3.26785 1.80403 3.13262C2.1726 2.99311 2.6668 2.82837 3.3056 2.61544L3.31735 2.61152L9.25598 0.631981L9.29682 0.618366C10.09 0.353953 10.7391 0.137552 11.2439 0.047757Z" fill="white"/>
</svg>
