<svg width="24" height="27" viewBox="0 0 24 27" fill="none" xmlns="http://www.w3.org/2000/svg">
<path d="M23.449 12.0294C23.449 19.654 14.6803 24.7144 12.6435 25.787C12.377 25.9273 12.072 25.9273 11.8054 25.787C9.76864 24.7144 1 19.654 1 12.0294C1 5.41176 6.43865 1 12.2245 1C18.2109 1 23.449 5.41176 23.449 12.0294Z" stroke="white"/>
<path d="M17.8468 11.9694C17.8468 14.9139 15.3498 17.3367 12.2244 17.3367C9.09892 17.3367 6.60193 14.9139 6.60193 11.9694C6.60193 9.02494 9.09892 6.60205 12.2244 6.60205C15.3498 6.60205 17.8468 9.02494 17.8468 11.9694Z" stroke="white"/>
</svg>
