<svg width="20" height="27" viewBox="0 0 20 27" fill="none" xmlns="http://www.w3.org/2000/svg">
<path d="M14.8158 3.63159C16.6638 3.63159 17.5878 3.63159 18.2515 4.07509C18.5388 4.26709 18.7856 4.5138 18.9776 4.80114C19.4211 5.46489 19.4211 6.38888 19.4211 8.23685V20.7369C19.4211 23.2179 19.4211 24.4585 18.6503 25.2292C17.8795 26 16.639 26 14.1579 26H6.26316C3.78208 26 2.54154 26 1.77077 25.2292C1 24.4585 1 23.2179 1 20.7369V8.23686C1 6.38888 1 5.46489 1.4435 4.80114C1.6355 4.5138 1.88221 4.26709 2.16955 4.07509C2.8333 3.63159 3.75729 3.63159 5.60526 3.63159" stroke="white"/>
<path d="M6.26318 3.63158C6.26318 2.1782 7.44138 1 8.89476 1H11.5263C12.9797 1 14.1579 2.1782 14.1579 3.63158C14.1579 5.08496 12.9797 6.26316 11.5263 6.26316H8.89476C7.44138 6.26316 6.26318 5.08496 6.26318 3.63158Z" stroke="white"/>
<path d="M6.26318 12.8421L14.1579 12.8421" stroke="white" stroke-linecap="round"/>
<path d="M6.26318 18.1053L11.5263 18.1053" stroke="white" stroke-linecap="round"/>
</svg>
