<svg width="28" height="27" viewBox="0 0 28 27" fill="none" xmlns="http://www.w3.org/2000/svg">
<path d="M11.1309 5.40222C12.3082 2.46741 12.8968 1 13.909 1C14.9211 1 15.5098 2.46741 16.687 5.40222L16.7418 5.53888C17.4069 7.19691 17.7394 8.02592 18.4171 8.5298C19.0949 9.03369 19.9845 9.11336 21.7639 9.27272L22.0855 9.30153C24.9976 9.56233 26.4537 9.69273 26.7652 10.6191C27.0768 11.5455 25.9955 12.5292 23.8328 14.4968L23.111 15.1534C22.0163 16.1495 21.4689 16.6475 21.2138 17.3002C21.1662 17.4219 21.1266 17.5467 21.0953 17.6736C20.9276 18.354 21.0879 19.0765 21.4085 20.5214L21.5083 20.9711C22.0975 23.6266 22.392 24.9543 21.8777 25.527C21.6855 25.741 21.4357 25.8951 21.1582 25.9708C20.4156 26.1734 19.3613 25.3143 17.2527 23.5961C15.868 22.4679 15.1757 21.9037 14.3809 21.7768C14.0683 21.7269 13.7497 21.7269 13.437 21.7768C12.6422 21.9037 11.9499 22.4679 10.5653 23.5961C8.45665 25.3143 7.40234 26.1734 6.65973 25.9708C6.38223 25.8951 6.13244 25.741 5.94024 25.527C5.42589 24.9543 5.72048 23.6266 6.30964 20.9711L6.40943 20.5214C6.73001 19.0765 6.89031 18.354 6.72261 17.6736C6.69132 17.5467 6.65176 17.4219 6.60417 17.3002C6.34904 16.6475 5.80165 16.1495 4.70689 15.1534L3.98511 14.4968C1.82247 12.5292 0.741153 11.5455 1.05271 10.6191C1.36427 9.69273 2.82031 9.56233 5.7324 9.30153L6.05407 9.27272C7.83339 9.11336 8.72305 9.03369 9.40078 8.5298C10.0785 8.02592 10.4111 7.1969 11.0761 5.53888L11.1309 5.40222Z" stroke="white"/>
</svg>
